<svg width="96" height="96" viewBox="0 0 96 96" fill="none" xmlns="http://www.w3.org/2000/svg">
  <rect width="96" height="96" rx="24" fill="#1E293B"/>
  <path d="M50 24H38C32 24 28 28 28 34V46C28 52 32 56 38 56H50C56 56 60 52 60 46V34C60 28 56 24 50 24Z" fill="#3776AB"/>
  <circle cx="43" cy="31" r="3" fill="#E2E8F0"/>
  <path d="M46 40H58C64 40 68 44 68 50V62C68 68 64 72 58 72H46C40 72 36 68 36 62V50C36 44 40 40 46 40Z" fill="#FFC331"/>
  <circle cx="53" cy="65" r="3" fill="#1E293B"/>
  <text x="48" y="86" text-anchor="middle" font-size="16" font-family="Inter, sans-serif" font-weight="700" fill="#E2E8F0">Python</text>
</svg>

